<svg width="1870" height="1870" viewBox="0 0 1870 1870" fill="none" xmlns="http://www.w3.org/2000/svg">
<rect width="1870" height="1870" fill="#FF392C"/>
<rect x="887" y="366" width="95" height="1504" fill="white"/>
<rect x="1052" y="692" width="95" height="1178" fill="white"/>
<rect x="1217" y="989" width="95" height="881" fill="white"/>
<path d="M1382 1167H1477V1870H1382V1167Z" fill="white"/>
<path d="M1547 1374H1642V1870H1547V1374Z" fill="white"/>
<path d="M1712 1520H1807V1870H1712V1520Z" fill="white"/>
<path d="M73 1520H168V1870H73V1520Z" fill="white"/>
<path d="M238 1374H333V1870H238V1374Z" fill="white"/>
<path d="M384 1167H479V1870H384V1167Z" fill="white"/>
<rect x="557" y="989" width="95" height="881" fill="white"/>
<rect x="722" y="692" width="95" height="1178" fill="white"/>
</svg>
